<svg width="1243" height="542" viewBox="0 0 1243 542" fill="none" xmlns="http://www.w3.org/2000/svg">
<mask id="mask0_1907_646" style="mask-type:alpha" maskUnits="userSpaceOnUse" x="18" y="21" width="1210" height="521">
<path d="M210.711 362.4C210.711 394 202.111 418 184.911 434.4C167.711 450.8 144.311 459 114.711 459C85.1109 459 61.7109 450.8 44.5109 434.4C27.3109 418 18.7109 394 18.7109 362.4V117C18.7109 85.8 27.3109 62 44.5109 45.6C61.7109 29.2 85.3109 21 115.311 21C144.911 21 168.111 29.2 184.911 45.6C202.111 61.6 210.711 85.4 210.711 117V362.4ZM120.711 103.8C120.711 96.6 118.711 93 114.711 93C110.711 93 108.711 96.6 108.711 103.8V375.6C108.711 383.2 110.711 387 114.711 387C118.711 387 120.711 383.2 120.711 375.6V103.8ZM414.617 161.4C414.617 179.4 410.617 194.6 402.617 207C394.617 219 383.417 227.4 369.017 232.2V234.6C383.817 239 395.017 247.6 402.617 260.4C410.617 272.8 414.617 288 414.617 306V353.4C414.617 386.2 405.617 410.6 387.617 426.6C370.017 442.2 347.017 450 318.617 450H222.617V30H318.617C332.617 30 345.417 32 357.017 36C369.017 39.6 379.217 45.4 387.617 53.4C396.017 61 402.617 71 407.417 83.4C412.217 95.4 414.617 109.6 414.617 126V161.4ZM324.617 112.8C324.617 105.6 322.617 102 318.617 102H312.617V198H318.617C322.617 198 324.617 194.2 324.617 186.6V112.8ZM324.617 280.8C324.617 273.6 322.617 270 318.617 270H312.617V378H318.617C322.617 378 324.617 374.2 324.617 366.6V280.8ZM513.594 30V378H561.594V450H423.594V30H513.594ZM663.594 450H573.594V30H663.594V450ZM867.547 356.4C867.547 387.6 859.547 412 843.547 429.6C827.547 446.8 806.547 456.4 780.547 458.4C783.347 463.2 787.147 466.8 791.947 469.2C796.747 472 801.947 474 807.547 475.2C813.147 476.4 818.947 477 824.947 477C830.947 477.4 836.547 477.6 841.747 477.6L843.547 479.4V539.4L842.347 541.8C831.947 541.8 822.147 541 812.947 539.4C803.747 537.8 795.547 534.2 788.347 528.6C781.147 523 775.347 514.6 770.947 503.4C766.547 492.6 763.947 477.8 763.147 459C737.147 457 715.947 447.2 699.547 429.6C683.547 412 675.547 387.6 675.547 356.4V123C675.547 89.8 684.547 64.6 702.547 47.4C720.547 29.8 743.547 21 771.547 21C799.947 21 822.947 29.8 840.547 47.4C858.547 64.6 867.547 89.8 867.547 123V356.4ZM777.547 103.8C777.547 96.6 775.547 93 771.547 93C767.547 93 765.547 96.6 765.547 103.8V375.6C765.547 383.2 767.547 387 771.547 387C775.547 387 777.547 383.2 777.547 375.6V103.8ZM1071.45 362.4C1071.45 395.2 1062.45 419.6 1044.45 435.6C1026.85 451.2 1003.85 459 975.453 459C947.453 459 924.453 451.2 906.453 435.6C888.453 419.6 879.453 395.2 879.453 362.4V30H969.453V375.6C969.453 383.2 971.453 387 975.453 387C979.453 387 981.453 383.2 981.453 375.6V30H1071.45V362.4ZM1221.96 102H1173.36V198H1218.36V270H1173.36V378H1227.36V450H1083.36V30H1221.96V102Z" fill="#2400FF"/>
</mask>
<g mask="url(#mask0_1907_646)">
<rect x="156.9" y="-414.868" width="1348" height="545" transform="rotate(16.4652 156.9 -414.868)" fill="#2400FF"/>
</g>
<mask id="mask1_1907_646" style="mask-type:alpha" maskUnits="userSpaceOnUse" x="18" y="21" width="1210" height="521">
<path d="M210.711 362.4C210.711 394 202.111 418 184.911 434.4C167.711 450.8 144.311 459 114.711 459C85.1109 459 61.7109 450.8 44.5109 434.4C27.3109 418 18.7109 394 18.7109 362.4V117C18.7109 85.8 27.3109 62 44.5109 45.6C61.7109 29.2 85.3109 21 115.311 21C144.911 21 168.111 29.2 184.911 45.6C202.111 61.6 210.711 85.4 210.711 117V362.4ZM120.711 103.8C120.711 96.6 118.711 93 114.711 93C110.711 93 108.711 96.6 108.711 103.8V375.6C108.711 383.2 110.711 387 114.711 387C118.711 387 120.711 383.2 120.711 375.6V103.8ZM414.617 161.4C414.617 179.4 410.617 194.6 402.617 207C394.617 219 383.417 227.4 369.017 232.2V234.6C383.817 239 395.017 247.6 402.617 260.4C410.617 272.8 414.617 288 414.617 306V353.4C414.617 386.2 405.617 410.6 387.617 426.6C370.017 442.2 347.017 450 318.617 450H222.617V30H318.617C332.617 30 345.417 32 357.017 36C369.017 39.6 379.217 45.4 387.617 53.4C396.017 61 402.617 71 407.417 83.4C412.217 95.4 414.617 109.6 414.617 126V161.4ZM324.617 112.8C324.617 105.6 322.617 102 318.617 102H312.617V198H318.617C322.617 198 324.617 194.2 324.617 186.6V112.8ZM324.617 280.8C324.617 273.6 322.617 270 318.617 270H312.617V378H318.617C322.617 378 324.617 374.2 324.617 366.6V280.8ZM513.594 30V378H561.594V450H423.594V30H513.594ZM663.594 450H573.594V30H663.594V450ZM867.547 356.4C867.547 387.6 859.547 412 843.547 429.6C827.547 446.8 806.547 456.4 780.547 458.4C783.347 463.2 787.147 466.8 791.947 469.2C796.747 472 801.947 474 807.547 475.2C813.147 476.4 818.947 477 824.947 477C830.947 477.4 836.547 477.6 841.747 477.6L843.547 479.4V539.4L842.347 541.8C831.947 541.8 822.147 541 812.947 539.4C803.747 537.8 795.547 534.2 788.347 528.6C781.147 523 775.347 514.6 770.947 503.4C766.547 492.6 763.947 477.8 763.147 459C737.147 457 715.947 447.2 699.547 429.6C683.547 412 675.547 387.6 675.547 356.4V123C675.547 89.8 684.547 64.6 702.547 47.4C720.547 29.8 743.547 21 771.547 21C799.947 21 822.947 29.8 840.547 47.4C858.547 64.6 867.547 89.8 867.547 123V356.4ZM777.547 103.8C777.547 96.6 775.547 93 771.547 93C767.547 93 765.547 96.6 765.547 103.8V375.6C765.547 383.2 767.547 387 771.547 387C775.547 387 777.547 383.2 777.547 375.6V103.8ZM1071.45 362.4C1071.45 395.2 1062.45 419.6 1044.45 435.6C1026.85 451.2 1003.85 459 975.453 459C947.453 459 924.453 451.2 906.453 435.6C888.453 419.6 879.453 395.2 879.453 362.4V30H969.453V375.6C969.453 383.2 971.453 387 975.453 387C979.453 387 981.453 383.2 981.453 375.6V30H1071.45V362.4ZM1221.96 102H1173.36V198H1218.36V270H1173.36V378H1227.36V450H1083.36V30H1221.96V102Z" fill="#2400FF"/>
</mask>
<g mask="url(#mask1_1907_646)">
<path d="M-294.999 131.498L1243.42 437.5L1243.42 1156.25L-215.999 730.568L-294.999 131.498Z" fill="#2400FF"/>
</g>
</svg>
