<svg width="1112" height="735" viewBox="0 0 1112 735" fill="none" xmlns="http://www.w3.org/2000/svg">
<path fill-rule="evenodd" clip-rule="evenodd" d="M15.8098 9.74201C15.0147 13.3226 11.82 16 8 16C3.58172 16 0 12.4183 0 8C0 3.58172 3.58172 0 8 0C11.6349 0 14.7037 2.42428 15.6775 5.74419C16.3503 5.72262 17.0651 5.69984 17.8214 5.67593C24.2751 5.47187 33.7463 5.18493 45.8191 4.8533C69.9646 4.19007 104.516 3.34811 146.145 2.63315C229.401 1.20325 340.973 0.281107 454.223 2.31296C567.461 4.34458 682.429 9.33027 772.456 19.7244C812.02 24.2922 846.824 29.9108 874.571 36.7997C885.643 17.4873 913.519 2.5004 967 2.5004C999.165 2.5004 1024.43 10.8537 1044.16 26.3818C1063.87 41.8903 1077.89 64.4159 1087.83 92.457C1107.69 148.453 1111.5 227.04 1111.5 317.5C1111.5 408.084 1104.62 512.399 1097.74 594.043C1094.3 634.871 1090.87 670.04 1088.29 695.003C1087 707.484 1085.92 717.415 1085.17 724.226C1084.79 727.631 1084.5 730.257 1084.3 732.031L1084.24 732.523C1084.17 733.172 1084.11 733.681 1084.07 734.046L1084.01 734.559L1083.99 734.688L1083.99 734.721L1083.99 734.729C1083.99 734.73 1083.99 734.73 1083.84 734.714C1083.64 734.691 1083.16 734.635 1082 734.5C1080.01 734.269 1080.01 734.268 1080.01 734.266L1080.01 734.258L1080.02 734.226L1080.03 734.098L1080.09 733.589C1080.14 733.138 1080.22 732.465 1080.32 731.58C1080.52 729.809 1080.82 727.188 1081.19 723.786C1081.95 716.984 1083.02 707.063 1084.31 694.592C1086.88 669.648 1090.32 634.505 1093.76 593.707C1100.63 512.101 1107.5 407.917 1107.5 317.5C1107.5 226.961 1103.66 149.048 1084.06 93.7939C1074.28 66.2099 1060.62 44.423 1041.69 29.5253C1022.78 14.6471 998.435 6.5004 967 6.5004C915.068 6.5004 889.125 20.7054 878.632 37.8302C881.015 38.4483 883.342 39.0764 885.613 39.7145C900.263 43.8332 912.597 48.3909 922.147 53.4464C931.66 58.4824 938.621 64.1222 942.24 70.5149C946.439 77.9312 947.804 84.7686 946.819 90.7027C945.831 96.6566 942.512 101.477 937.78 104.875C928.383 111.622 913.458 112.796 899.228 106.845C889.46 102.761 880.747 94.1744 875.178 83.6967C869.602 73.2045 867.08 60.6301 869.954 48.4776C870.598 45.7564 871.505 43.0745 872.696 40.4565C845.345 33.7312 811.061 28.2081 771.997 23.698C682.165 13.3264 567.351 8.34325 454.152 6.31231C340.964 4.28159 229.443 5.20313 146.214 6.63256C104.601 7.34726 70.0628 8.18888 45.9289 8.8518C33.8621 9.18325 24.3963 9.47003 17.9478 9.67393C17.1937 9.69778 16.4808 9.72049 15.8098 9.74201ZM873.847 49.3981C874.478 46.7268 875.404 44.0655 876.659 41.4519C879.355 42.1439 881.98 42.8483 884.53 43.5653C899.035 47.6429 911.071 52.1092 920.275 56.9816C929.516 61.8736 935.691 67.0659 938.76 72.4856C942.628 79.3193 943.672 85.2319 942.873 90.0478C942.077 94.8439 939.418 98.774 935.447 101.626C927.434 107.379 914.041 108.704 900.772 103.155C892.007 99.49 883.929 91.6387 878.71 81.8195C873.499 72.0148 871.237 60.433 873.847 49.3981Z" fill="#2400FF"/>
</svg>
